P2
24 7
255
0  0  0  0  0  0  0  0  0  0  0  0  0  0  0  0  0  0  0  0  0  0  0  0
0  50  0  0  0  50  0  0  120  120  120  0  0  0  0 190 190  0  0  0 250 250 250  0
0  50  50  0  50  50  0  0  120  0  0  120  0  0 190  0  0 190  0  0  0 250  0  0
0  50  0  50  0  50  0  0  120  120  120  0  0  0  0  0 190  0  0  0  0 250  0  0
0  50  0  0  0  50  0  0  120  0  0  0  0  0  0 190  0  0  0  0  0 250  0  0
0  50  0  0  0  50  0  0  120  0  0  0  0  0 190 190 190 190  0  0 250 250 250  0
0  0  0  0  0  0  0  0  0  0  0  0  0  0  0  0  0  0  0  0  0  0  0  0

